<?xml version="1.0" encoding="UTF-8" standalone="no"?>
<!-- Created with Inkscape (http://www.inkscape.org/) -->

<svg
   width="300mm"
   height="180mm"
   viewBox="0 0 300 180"
   version="1.1"
   id="svg5"
   xml:space="preserve"
   xmlns:inkscape="http://www.inkscape.org/namespaces/inkscape"
   xmlns:sodipodi="http://sodipodi.sourceforge.net/DTD/sodipodi-0.dtd"
   xmlns="http://www.w3.org/2000/svg"
   xmlns:svg="http://www.w3.org/2000/svg"><sodipodi:namedview
     id="namedview7"
     pagecolor="#ffffff"
     bordercolor="#000000"
     borderopacity="0.25"
     inkscape:showpageshadow="2"
     inkscape:pageopacity="0.0"
     inkscape:pagecheckerboard="0"
     inkscape:deskcolor="#d1d1d1"
     inkscape:document-units="mm"
     showgrid="false"><inkscape:grid
       type="xygrid"
       id="grid239"
       originx="0"
       originy="0" /></sodipodi:namedview><defs
     id="defs2" /><g
     inkscape:label="Layer 1"
     inkscape:groupmode="layer"
     id="layer1"><rect
       style="fill:#eeeddd;fill-opacity:1;stroke-width:0.253169"
       id="rect3217"
       width="339.5123"
       height="204.68805"
       x="-19.756149"
       y="-12.344025" /><path
       style="fill:#332211;fill-opacity:1;stroke-width:0.213739"
       d="m 76.705236,157.87937 c -2.94299,-1.37011 -7.17668,-4.85989 -9.95629,-8.20687 -6.0842,-7.32609 -10.50603,-17.08598 -13.070261,-28.84878 -0.393398,-1.80463 -0.746526,-3.31239 -0.784736,-3.3506 -0.03821,-0.0382 -1.318941,-0.32124 -2.846068,-0.62895 -6.814297,-1.37305 -11.697743,-3.82251 -14.462211,-7.254 -1.3965,-1.73345 -2.30709,-3.57677 -3.49403,-7.07298 -1.584718,-4.667911 -2.886402,-7.075741 -5.165202,-9.554511 -1.364696,-1.48445 -1.592093,-2.16035 -0.944833,-2.80837 0.4055,-0.40597 0.743271,-0.47017 2.808641,-0.53386 5.296175,-0.16332 10.883437,1.48121 14.64797,4.31144 1.880829,1.41404 4.42392,4.16144 5.785554,6.250381 0.97238,1.49176 2.470288,4.40397 3.399748,6.60971 0.116498,0.27647 0.234118,-0.6673 0.332965,-2.67174 0.434088,-8.802531 2.588069,-17.682731 6.13578,-25.295923 0.898613,-1.92839 0.949463,-2.122917 0.605309,-2.315512 -1.52783,-0.855018 -2.587949,-2.424654 -2.820233,-4.175696 -0.137687,-1.037928 -0.190891,-1.105657 -1.737301,-2.211604 -7.003716,-5.008862 -9.449721,-13.229756 -6.458348,-21.706195 1.794504,-5.084953 3.963826,-8.216127 10.128357,-14.619137 4.800399,-4.986116 6.026309,-6.549171 7.260339,-9.257076 0.92954,-2.039747 1.90614,-2.922143 3.23409,-2.922143 1.25408,0 2.02358,0.415979 2.85112,1.54125 0.64465,0.876585 1.72621,3.801481 1.72621,4.668217 0,0.229045 0.0742,0.416445 0.16477,0.416445 0.0906,0 1.02839,-0.870076 2.08396,-1.933503 5.02359,-5.061049 7.68132,-5.333997 9.26947,-0.951975 0.25563,0.705339 0.78112,2.83768 1.16775,4.738532 l 0.70296,3.456099 1.16046,-0.645293 c 2.04489,-1.137101 4.54887,-2.131877 5.66306,-2.249805 1.85462,-0.196302 3.09999,0.781445 3.12304,2.451919 0.0149,1.085189 -0.12471,1.497355 -1.00021,2.951268 -0.98595,1.63733 -1.33007,3.359549 -1.59844,7.999742 -0.63593,10.995205 -0.94805,13.606167 -2.04454,17.103171 -1.31557,4.195647 -4.1057,8.658867 -6.93561,11.094499 -2.16338,1.861966 -5.2395,3.526546 -7.78884,4.214787 -1.65734,0.447418 -5.09037,0.930551 -6.61232,0.930551 -1.01376,0 -1.67505,0.142001 -2.57055,0.551968 -1.0631,0.486711 -1.43611,0.544681 -3.15449,0.490281 l -1.94883,-0.06171 -0.80875,1.33752 c -2.3202,3.837214 -4.732593,11.447072 -5.803683,18.307732 -0.622516,3.987361 -0.675041,13.625621 -0.09774,17.933711 2.07327,15.47169 9.923843,30.71815 19.408673,37.69326 3.87262,2.84792 3.8183,2.79895 3.8183,3.44201 0,1.34802 -1.44144,1.68189 -3.37501,0.78172 z M 50.156777,113.54722 c 0,-0.23616 -2.116005,-3.20546 -3.214642,-4.51099 -0.445172,-0.529 -2.170987,-2.30838 -3.83513,-3.95417 -3.771958,-3.73034 -4.380029,-4.7075 -2.534624,-4.07308 1.978633,0.68022 5.012812,2.99509 7.66715,5.84949 1.900233,2.04347 1.91601,1.97714 0.320443,-1.34728 -3.405404,-7.095281 -8.33669,-10.978301 -15.731389,-12.387301 -0.814473,-0.15519 -1.480854,-0.20177 -1.480854,-0.1035 0,0.0983 0.421309,0.78442 0.936238,1.52479 1.373017,1.9741 2.298979,3.96389 3.424394,7.358641 1.536506,4.63481 2.743279,6.34626 6.005712,8.51736 1.950714,1.29817 2.586091,1.59407 5.55722,2.58802 2.212266,0.74009 2.885482,0.86561 2.885482,0.53802 z M 75.377986,73.52383 c 3.3078,-0.825581 6.62727,-2.772522 9.10658,-5.341204 3.20841,-3.324071 5.28162,-7.80797 6.17419,-13.353429 0.17243,-1.071312 0.46273,-4.849118 0.6451,-8.395126 0.18237,-3.546007 0.42593,-6.949606 0.54124,-7.563552 0.26838,-1.429042 1.03403,-3.747035 1.28989,-3.905163 0.10839,-0.06699 0.19709,-0.266885 0.19709,-0.444203 0,-0.403798 -0.4292,-0.28727 -2.49612,0.677719 -5.07975,2.37159 -12.5788,8.559961 -15.13172,12.487006 -0.57058,0.877687 -1.82553,3.238879 -2.78878,5.247088 -2.04675,4.267083 -3.20707,6.1814 -4.39997,7.259107 -1.1391,1.029109 -1.58483,0.937443 -1.56561,-0.32197 0.0107,-0.702306 0.35934,-1.692345 1.31497,-3.734285 2.44302,-5.220169 3.29818,-8.432347 3.72865,-14.00575 0.19095,-2.472278 0.19141,-4.013516 0.002,-6.481433 -0.39187,-5.103643 -1.63379,-10.413959 -2.42979,-10.389558 -0.15356,0.0047 -0.57915,0.653941 -0.94576,1.442739 -1.10828,2.384569 -3.15838,4.985729 -7.4052,9.395656 -4.503949,4.676943 -7.003101,7.834303 -8.297321,10.482608 -1.723633,3.526974 -2.237568,5.909655 -2.070702,9.599942 0.18379,4.064345 1.714706,7.415293 4.676462,10.236083 1.270261,1.209803 2.67585,2.160872 2.884779,1.951942 0.04912,-0.04912 -0.05736,-0.504952 -0.236614,-1.012982 -0.471007,-1.334943 -0.807017,-4.763499 -0.649158,-6.623856 0.189154,-2.229327 0.688516,-4.673328 1.431472,-7.005966 1.237472,-3.885268 5.581272,-11.648518 7.560962,-13.512988 l 0.79432,-0.748086 -0.14886,0.854956 c -0.0819,0.470226 -0.54506,1.576326 -1.0293,2.457999 -0.48424,0.881674 -1.39878,2.612961 -2.03232,3.847304 -0.63354,1.234344 -1.38256,2.677082 -1.66449,3.206087 -0.28192,0.529004 -0.90009,1.991606 -1.37368,3.250228 -2.099839,5.580484 -1.887823,11.096324 0.58956,15.337762 0.43834,0.750476 0.90404,1.3994 1.0349,1.442046 0.13084,0.04265 0.36054,-0.218543 0.51044,-0.580428 0.1499,-0.361885 0.54841,-1.038792 0.88556,-1.504233 0.63333,-0.874269 1.34018,-1.099606 1.85004,-0.589759 0.34998,0.349986 0.32219,1.75257 -0.0641,3.235726 -0.17634,0.676997 -0.32061,1.2743 -0.32061,1.327342 0,0.177021 2.06444,0.09921 3.22942,-0.121724 2.25456,-0.42757 5.39917,-2.242277 7.748,-4.471258 2.58786,-2.455827 4.68073,-5.792999 6.50917,-10.379182 1.12826,-2.829961 1.35722,-3.312955 1.5705,-3.312955 0.27018,0 0.21735,0.903128 -0.15958,2.72796 -0.79324,3.840301 -2.2957,7.406062 -4.40823,10.461948 -1.43966,2.082528 -4.61138,5.068876 -6.64756,6.259032 -0.90381,0.528274 -1.64329,1.031392 -1.64329,1.118041 0,0.213962 1.68834,-0.02173 3.63357,-0.507231 z m 4.05725,-35.5024 c 0.002,-0.67595 -0.051,-1.229 -0.118,-1.229 -0.23523,0 -2.132,1.383334 -3.02965,2.209564 -0.94584,0.870579 -1.18346,1.456241 -1.43408,3.534565 l -0.13852,1.148739 2.35822,-2.217435 2.35822,-2.217434 0.004,-1.228999 z m 4.02273,-1.888708 c 0.49338,-0.362839 0.89706,-0.826931 0.89706,-1.031315 0,-0.690699 -0.84362,-5.030994 -1.28623,-6.61736 -0.55551,-1.991099 -0.97642,-2.807371 -1.44443,-2.801153 -0.51964,0.0069 -2.67579,1.880326 -4.95036,4.301225 -1.90437,2.026884 -1.93697,2.07946 -1.92139,3.099218 0.009,0.570544 0.0808,1.454413 0.1603,1.964151 l 0.14446,0.926798 0.96183,-0.73521 c 1.67735,-1.282151 3.472,-2.350734 4.23818,-2.523538 0.64643,-0.145793 0.81943,-0.08915 1.35082,0.442227 0.55526,0.555266 0.60943,0.743882 0.60943,2.12205 0,0.831937 0.0772,1.512615 0.17163,1.512615 0.0944,0 0.57531,-0.296869 1.0687,-0.659708 z M 109.45861,145.31479 c -1.20886,-0.48858 -1.99027,-1.2294 -2.59433,-2.4595 -0.52404,-1.06715 -0.60084,-1.47012 -0.5999,-3.14749 0.002,-2.22524 0.42166,-3.40084 1.65848,-4.63766 1.22916,-1.22916 2.54239,-1.74695 4.4205,-1.74295 2.41017,0.005 3.63495,0.74216 4.74248,2.85392 0.69943,1.33361 0.73105,4.53497 0.0591,5.98709 -0.54233,1.17207 -1.54751,2.21057 -2.73086,2.82136 -1.06614,0.5503 -3.93311,0.73846 -4.95551,0.32523 z m 3.91091,-1.96077 c 0.80333,-0.67595 1.16627,-1.93323 1.17611,-4.07425 0.0103,-2.23192 -0.52657,-3.56474 -1.65197,-4.10141 -0.69416,-0.33103 -0.85726,-0.33659 -1.65166,-0.0563 -1.275,0.44982 -1.73221,1.44162 -1.8441,4.00042 -0.0994,2.27332 0.26398,3.59837 1.18579,4.32348 0.77194,0.60719 2.00326,0.56657 2.78583,-0.0919 z m 9.80524,1.83295 c -0.19842,-0.21926 -1.07856,-2.19499 -1.95587,-4.39051 -1.864,-4.66484 -2.01802,-4.98202 -2.75216,-5.66787 -0.66688,-0.62302 -0.67901,-0.7468 -0.12718,-1.29862 0.36748,-0.36748 0.71246,-0.42748 2.458,-0.42748 1.73777,0 2.09145,0.0609 2.45315,0.42264 0.49156,0.49155 0.39038,0.9118 -0.33371,1.38625 -0.28402,0.18609 -0.5164,0.45098 -0.5164,0.58862 0,0.13766 0.37807,1.21749 0.84015,2.39964 0.46208,1.18216 0.94975,2.43792 1.08372,2.79059 0.21768,0.57303 0.26648,0.60029 0.45895,0.2564 0.53203,-0.95067 1.89155,-5.15759 1.78016,-5.50856 -0.0681,-0.21453 -0.31134,-0.44958 -0.54057,-0.52233 -0.71814,-0.22793 -0.91822,-0.88387 -0.42122,-1.38087 0.3601,-0.3601 0.71107,-0.43238 2.09954,-0.43238 2.29856,0 2.76684,0.54415 1.55472,1.80661 -0.41399,0.43119 -1.02059,1.69909 -1.79438,3.75061 -0.64293,1.70457 -1.38763,3.67631 -1.65489,4.38165 -0.79819,2.10661 -1.77557,2.79195 -2.63201,1.84561 z m 10.01966,0.006 c -2.01686,-0.96409 -2.98901,-3.02565 -2.83869,-6.01981 0.15008,-2.98932 1.50063,-4.95655 3.89274,-5.67021 3.4068,-1.0164 6.08835,0.83004 6.10151,4.20131 0.006,1.7305 -0.0873,1.7754 -3.90129,1.86308 l -3.19999,0.0736 0.13149,0.95932 c 0.36271,2.64632 2.36729,3.56192 4.89139,2.23417 1.32844,-0.6988 1.86936,-0.59082 1.86936,0.37317 0,0.6589 -0.55833,1.26538 -1.70991,1.8574 -1.14018,0.58615 -4.12553,0.65913 -5.23661,0.12801 z m 4.26901,-7.71154 c 0.18545,-0.5843 -0.085,-1.54175 -0.59389,-2.10213 -0.88989,-0.98002 -2.64026,-0.3645 -3.27355,1.15115 -0.55348,1.32467 -0.50842,1.36028 1.72141,1.36028 1.79856,0 2.03014,-0.0442 2.14603,-0.4093 z m 36.57098,7.79881 c -3.15883,-1.17302 -4.16878,-6.48173 -1.84372,-9.69136 1.23176,-1.70041 3.58837,-2.55364 5.99307,-2.16984 1.59129,0.25396 2.73321,1.09402 3.47493,2.55632 1.6624,3.27742 0.5073,7.47113 -2.48296,9.0146 -1.14014,0.58851 -3.91616,0.74525 -5.14132,0.29028 z m 4.01161,-1.84404 c 0.71612,-0.56331 1.20953,-2.21127 1.20798,-4.03465 -0.002,-1.79329 -0.30261,-2.86183 -1.03845,-3.68538 -0.47924,-0.53637 -0.74551,-0.6534 -1.46401,-0.64348 -1.15798,0.016 -1.68618,0.37439 -2.24276,1.52184 -0.34912,0.71975 -0.46297,1.36316 -0.47279,2.67175 -0.0171,2.27808 0.1907,3.16107 0.93012,3.95262 0.50746,0.54324 0.77793,0.65653 1.56741,0.65653 0.63897,0 1.13854,-0.14508 1.5125,-0.43923 z m 7.48847,1.84202 c -0.9402,-0.4092 -1.3633,-1.11437 -1.3633,-2.27218 0,-1.0788 0.44362,-1.69548 1.21967,-1.69548 0.5264,0 0.83259,0.33447 1.03143,1.1267 0.4646,1.85111 3.7336,1.92289 3.7336,0.082 0,-0.66286 -0.37599,-0.96134 -2.72652,-2.1644 -2.49269,-1.27582 -2.93757,-1.83744 -2.93757,-3.70846 0,-1.30662 0.0289,-1.37819 0.87685,-2.16912 1.15673,-1.07899 2.76866,-1.45489 4.78724,-1.11637 1.11937,0.18771 1.50351,0.36036 1.97708,0.8886 0.6634,0.73997 0.75762,1.59374 0.25506,2.31124 -0.62843,0.8972 -1.59848,0.51945 -2.18098,-0.8493 -0.3727,-0.8758 -2.07481,-1.0655 -2.99007,-0.33325 -0.42861,0.34291 -0.31208,1.32841 0.21373,1.80754 0.2645,0.24102 1.30602,0.82092 2.31448,1.28865 1.97279,0.91502 2.62436,1.56547 2.86775,2.8628 0.30953,1.64993 -0.60378,3.21189 -2.28989,3.91621 -0.99077,0.41387 -3.86047,0.42875 -4.78856,0.0248 z m 11.16499,-0.13923 c -1.10345,-0.86797 -1.20012,-1.33044 -1.20012,-5.74147 v -4.07166 h -0.70533 c -0.38794,0 -0.82076,-0.11541 -0.96183,-0.25649 -0.62954,-0.62953 0.0166,-1.435 1.16056,-1.44662 0.66343,-0.006 0.66973,-0.0174 0.76115,-1.28123 0.11657,-1.61165 0.57538,-2.19335 1.65818,-2.10233 l 0.75901,0.0638 0.0623,1.64729 0.0623,1.6473 1.51839,0.0626 c 1.77228,0.0731 2.2682,0.45914 1.57451,1.22567 -0.32228,0.3561 -0.65678,0.43999 -1.75437,0.43999 h -1.35618 v 3.72517 c 0,3.10153 0.0562,3.7814 0.33588,4.06104 0.38046,0.38046 1.09509,0.43136 1.8779,0.13373 0.73903,-0.28098 1.15546,0.20843 0.81435,0.95705 -0.6058,1.32961 -3.38771,1.89493 -4.60662,0.93613 z m -54.70614,0.0901 c -0.33828,-0.33828 -0.0891,-0.94515 0.60559,-1.47504 l 0.7481,-0.5706 v -3.48676 -3.48678 l -0.64122,-0.45659 c -1.32286,-0.94196 -0.57182,-2.01621 1.58696,-2.26993 1.38283,-0.16253 1.83286,0.0864 1.83286,1.01367 0,0.33827 0.0962,0.61504 0.21375,0.61504 0.11755,0 0.21373,-0.0956 0.21373,-0.21239 0,-0.36007 1.71892,-1.47984 2.49519,-1.62547 1.46173,-0.27421 2.30089,1.33122 1.33661,2.55713 -0.51135,0.65006 -1.05947,0.70989 -1.90855,0.20832 -0.50401,-0.29773 -0.70268,-0.31261 -1.23425,-0.0924 -0.34845,0.14433 -0.7422,0.5009 -0.87501,0.79238 -0.26748,0.58706 -0.33354,6.02486 -0.0779,6.41128 0.0864,0.13055 0.47457,0.40007 0.86268,0.59896 0.82351,0.422 1.05137,0.85801 0.68139,1.3038 -0.20818,0.25085 -0.83678,0.31789 -2.98063,0.31789 -1.49425,0 -2.78094,-0.0641 -2.85931,-0.14249 z m 15.69669,-0.15103 c -0.34991,-0.42161 -0.0924,-0.90542 0.74469,-1.39933 l 0.729,-0.43013 v -6.21284 -6.21285 l -0.729,-0.43012 c -0.87635,-0.51707 -1.10924,-1.01493 -0.67696,-1.4472 0.2615,-0.26149 1.03109,-0.31718 4.2292,-0.30604 4.13378,0.0144 5.02641,0.17411 6.3865,1.14258 1.96837,1.4016 2.16518,5.32711 0.36963,7.37214 -1.08592,1.23679 -2.13392,1.65714 -4.3962,1.76332 l -1.97708,0.0928 v 2.11021 2.11021 l 0.78222,0.37573 c 0.99909,0.4799 1.32226,0.96899 0.94256,1.42651 -0.38532,0.46427 -6.02371,0.50389 -6.40456,0.045 z m 7.71723,-8.15965 c 1.28188,-0.95449 1.77869,-3.02417 1.13224,-4.71685 -0.30266,-0.79251 -0.54423,-1.05806 -1.25692,-1.3817 -0.48524,-0.22034 -1.33912,-0.40274 -1.89751,-0.40532 l -1.01526,-0.005 v 3.55238 3.55239 l 1.23871,-0.0896 c 0.7791,-0.0564 1.4465,-0.24432 1.79874,-0.5066 z m -40.44318,-15.03067 c -2.46333,-0.81187 -3.64127,-2.66661 -3.68267,-5.7986 -0.048,-3.63303 1.88422,-6.17219 4.97259,-6.5345 3.10074,-0.36376 5.25514,1.59285 5.08286,4.61621 -0.0909,1.59534 -0.34192,1.69743 -4.1831,1.70141 l -3.04831,0.003 0.1359,0.90839 c 0.18041,1.20587 0.65499,2.20324 1.22658,2.57775 1.13414,0.74313 2.90805,0.61378 4.06518,-0.29642 0.74065,-0.58259 1.29149,-0.46311 1.37914,0.29918 0.0954,0.82999 -0.37183,1.44945 -1.5294,2.02758 -1.06782,0.53329 -3.4829,0.8043 -4.41877,0.49585 z m 3.56381,-8.0589 c 0.20086,-0.52343 -0.31719,-1.96281 -0.83764,-2.32735 -0.25783,-0.18059 -0.79352,-0.32834 -1.19042,-0.32834 -0.90869,0 -1.81491,0.90843 -2.12504,2.13022 l -0.21883,0.86212 h 2.12137 c 1.73343,0 2.145,-0.0616 2.25056,-0.33665 z m 13.00235,7.95581 c -0.35266,-0.16364 -0.88167,-0.55799 -1.17556,-0.87635 -0.46646,-0.50527 -0.53435,-0.7735 -0.53435,-2.1112 0,-1.7733 0.32743,-2.37936 1.7097,-3.16455 0.65639,-0.37286 1.28879,-0.50629 2.72517,-0.57496 l 1.87043,-0.0894 v -1.33433 c 0,-1.5871 -0.51978,-2.46068 -1.46413,-2.46068 -0.66485,0 -1.52822,0.53394 -1.52822,0.94512 0,0.45758 -0.85609,1.40601 -1.26912,1.40601 -0.21072,0 -0.63656,-0.19935 -0.94631,-0.443 -1.87175,-1.4723 1.12172,-3.88262 4.39686,-3.5403 1.52368,0.15926 2.33383,0.55547 2.97394,1.45442 0.39829,0.55935 0.51205,1.07897 0.62557,2.85744 0.0763,1.19557 0.10904,2.50043 0.0727,2.89968 -0.0363,0.39926 -0.0124,1.27822 0.0533,1.95324 0.10296,1.05868 0.19689,1.26446 0.68373,1.49779 0.63967,0.30659 0.83545,0.88685 0.45422,1.34621 -0.17931,0.21607 -0.70264,0.31034 -1.72264,0.31034 -1.54176,0 -1.44239,0.0549 -2.23961,-1.23904 -0.0215,-0.0349 -0.47934,0.23364 -1.01739,0.59678 -1.1595,0.78253 -2.69275,1.01945 -3.66827,0.56681 z m 4.02984,-2.37234 c 0.49418,-0.45799 0.56555,-0.69106 0.56555,-1.84668 v -1.32255 l -1.20165,0.12402 c -1.55025,0.16 -2.21817,0.73536 -2.21817,1.91075 0,1.30486 0.29125,1.6586 1.36561,1.6586 0.6836,0 1.06984,-0.13599 1.48866,-0.52414 z m 8.90865,2.28716 c -1.44662,-0.72976 -1.61031,-1.33802 -1.61031,-5.98375 v -4.11386 l -0.66848,-6.4e-4 c -0.74915,-6.5e-4 -1.22043,-0.42742 -1.11062,-1.00561 0.0486,-0.25607 0.39331,-0.46134 1.03291,-0.61514 l 0.95992,-0.23083 0.1077,-1.33661 c 0.12527,-1.55474 0.5243,-1.99793 1.70909,-1.89825 l 0.74808,0.0629 0.0623,1.64729 0.0623,1.6473 1.54079,0.0626 c 1.42431,0.0579 1.54606,0.0999 1.61062,0.5553 0.11959,0.84356 -0.31436,1.11037 -1.80592,1.11037 l -1.36314,2e-5 v 3.80456 c 0,2.67411 0.0762,3.88077 0.25649,4.06104 0.28751,0.2875 1.33783,0.31612 1.98778,0.0541 0.50075,-0.20184 0.96182,0.0948 0.96182,0.61873 0,0.77492 -1.88674,1.93512 -3.14578,1.93441 -0.32706,-1.8e-4 -0.92802,-0.1685 -1.33547,-0.37404 z m 9.29961,0.0738 c -1.46018,-0.40939 -2.7414,-1.77804 -3.22649,-3.4467 -0.52366,-1.80132 -0.35074,-4.33987 0.39481,-5.79596 1.05878,-2.06787 3.26262,-3.24723 5.61442,-3.0045 2.1493,0.22182 3.29207,1.32894 3.75595,3.63875 0.2916,1.45196 0.0629,2.17744 -0.78826,2.50107 -0.30298,0.1152 -1.87805,0.20945 -3.50013,0.20945 h -2.94926 l 0.20237,1.12212 c 0.11131,0.61718 0.43741,1.43173 0.7247,1.81011 0.94659,1.24681 3.01673,1.37482 4.4173,0.27313 0.6206,-0.48817 1.02668,-0.53776 1.39418,-0.17027 0.69077,0.69078 -0.14443,1.96211 -1.7219,2.62107 -1.15709,0.48334 -3.07326,0.59062 -4.31769,0.24173 z m 3.65453,-7.93002 c 0.20039,-0.52223 -0.12784,-1.80595 -0.57646,-2.25458 -0.91627,-0.91626 -2.70983,-0.26044 -3.32694,1.21651 -0.55413,1.32622 -0.5105,1.36028 1.74252,1.36028 1.61822,0 2.06266,-0.0662 2.16088,-0.32221 z m 7.6394,7.72916 c -1.93644,-0.92297 -2.8613,-2.68801 -2.85927,-5.45674 0.002,-2.01017 0.24111,-2.90904 1.12669,-4.22614 0.97153,-1.44491 2.35682,-2.25057 3.93606,-2.28914 0.68274,-0.0166 1.55395,0.0494 1.93601,0.14697 l 0.69465,0.17729 -0.003,-1.45973 c -0.003,-1.60706 -0.0519,-1.72813 -0.90512,-2.27111 -1.27129,-0.80898 -0.52174,-1.7323 1.65648,-2.04048 2.37336,-0.33579 2.24426,-0.80897 2.24426,8.22574 0,7.01723 0.0274,7.58047 0.37405,7.70341 0.46156,0.16369 1.12212,0.71733 1.12212,0.9405 0,0.0909 -0.15114,0.31648 -0.33587,0.50122 -0.24339,0.24339 -0.76132,0.33587 -1.88091,0.33587 -1.60194,0 -2.058,-0.20117 -2.058,-0.90777 0,-0.3352 -0.1291,-0.29106 -0.85506,0.29234 -1.17782,0.94652 -2.65276,1.06182 -4.19282,0.32777 z m 3.7976,-1.86694 c 0.80478,-0.4307 1.03654,-1.474 1.03654,-4.66606 0,-2.84449 -0.0227,-3.00298 -0.47503,-3.31982 -0.26127,-0.183 -0.88311,-0.33274 -1.38187,-0.33274 -1.13942,0 -2.23033,0.88228 -2.59472,2.0985 -0.32241,1.07612 -0.32203,3.49146 6.5e-4,4.56871 0.46197,1.54193 2.12026,2.34399 3.41435,1.65141 z m 17.97904,2.15644 c -1.38734,-0.29447 -2.35301,-0.8312 -3.1312,-1.74032 -1.25047,-1.4609 -1.41443,-2.38927 -1.41443,-8.00851 v -4.99565 l -0.86517,-0.54615 c -0.99091,-0.62553 -1.22079,-1.03662 -0.83777,-1.49813 0.2211,-0.26641 0.80069,-0.31313 3.28076,-0.26445 2.79992,0.0549 3.01791,0.0887 3.09287,0.47913 0.0545,0.2839 -0.18707,0.64463 -0.74542,1.11313 l -0.82605,0.6931 -0.0658,4.4042 c -0.078,5.22187 0.11208,6.49668 1.11868,7.50328 1.74925,1.74925 4.84741,1.2925 5.98189,-0.88191 0.40297,-0.77231 0.45279,-1.28768 0.51546,-5.33189 0.0825,-5.32282 0.026,-5.74575 -0.83461,-6.25414 -0.80898,-0.47788 -1.05452,-1.29933 -0.50786,-1.69904 0.58528,-0.42798 4.33913,-0.39368 4.96596,0.0454 0.64889,0.4545 0.60298,0.66808 -0.32648,1.51876 l -0.80152,0.73358 -0.11356,5.27994 c -0.0949,4.41283 -0.17559,5.42035 -0.49134,6.1349 -0.52082,1.17862 -1.71693,2.34678 -2.94298,2.87421 -1.18142,0.50823 -3.69844,0.72777 -5.05144,0.44058 z m -90.4153,-0.24052 c -0.45744,-0.46963 -0.29661,-0.99956 0.48404,-1.595 l 0.75123,-0.57298 -0.0566,-6.31368 -0.0565,-6.31368 -0.62227,-0.34479 c -0.99917,-0.55364 -1.18147,-1.02888 -0.58304,-1.51998 0.45007,-0.36935 0.85417,-0.41391 3.74041,-0.41247 6.62016,0.003 8.47314,0.87218 8.64701,4.05465 0.0647,1.18387 6.5e-4,1.50688 -0.42496,2.14217 -0.27562,0.41144 -0.93317,0.9661 -1.46123,1.23257 -0.52805,0.26647 -0.98555,0.55923 -1.01666,0.65058 -0.0311,0.0914 0.30553,0.29371 0.74809,0.44966 2.09474,0.73819 3.17215,2.3063 2.98705,4.34753 -0.18016,1.98689 -1.27451,3.22084 -3.50102,3.94762 -1.40308,0.458 -9.23459,0.65941 -9.6355,0.2478 z m 8.55835,-2.05175 c 1.32888,-0.76699 1.81161,-2.67611 1.04031,-4.1143 -0.53889,-1.00481 -1.61882,-1.51098 -3.53254,-1.65571 l -1.59521,-0.12065 -0.0713,1.57911 c -0.0393,0.86851 -0.0233,2.24849 0.0355,3.06664 0.0977,1.35962 0.15282,1.50128 0.64122,1.64751 0.83851,0.25105 2.72805,0.0326 3.48206,-0.4026 z m -0.69167,-8.00136 c 0.95614,-0.53738 1.38165,-1.39502 1.35423,-2.72949 -0.0159,-0.77295 -0.13955,-1.05233 -0.67916,-1.53447 -0.72979,-0.65208 -2.14591,-0.96821 -3.33653,-0.74484 -0.79227,0.14863 -0.95623,0.37487 -0.86518,1.1938 0.0327,0.2939 0.0674,1.37595 0.0772,2.40457 l 0.0178,1.87021 h 1.30677 c 0.94135,0 1.53553,-0.12857 2.12484,-0.45978 z m 18.51227,10.14929 c -0.34372,-0.34372 -0.0922,-1.07756 0.55023,-1.60524 l 0.69658,-0.57216 0.0654,-5.84001 c 0.0359,-3.212 0.0107,-6.12855 -0.0559,-6.48123 -0.0796,-0.42139 -0.37683,-0.80675 -0.86685,-1.12409 -0.8363,-0.5416 -0.97298,-1.19719 -0.3222,-1.54547 0.23289,-0.12464 1.12258,-0.31643 1.97709,-0.42621 1.34472,-0.17274 1.58959,-0.15215 1.82083,0.15308 0.2022,0.2669 0.26717,2.21399 0.26717,8.00641 0,6.26887 0.052,7.65376 0.28749,7.65376 0.38392,0 0.99495,0.69485 0.99495,1.13144 0,0.19233 -0.18605,0.44926 -0.41343,0.57095 -0.45139,0.24158 -4.77046,0.3096 -5.00129,0.0788 z m 75.73465,-0.28543 c -0.19612,-0.36648 -0.0898,-0.56319 0.74057,-1.37024 l 0.96958,-0.94232 v -5.89688 c 0,-5.35331 -0.0345,-5.926 -0.37404,-6.21264 -1.55463,-1.31236 -1.60587,-1.38817 -1.27354,-1.88491 0.30941,-0.46246 0.38898,-0.46974 4.34777,-0.3975 4.34243,0.0793 5.32627,0.21268 6.85032,0.92907 2.81964,1.32539 4.17729,4.64096 3.65919,8.93621 -0.45781,3.79542 -2.61205,6.16899 -6.31011,6.95262 -0.91322,0.1935 -2.7311,0.30846 -4.91498,0.3108 -3.2502,0.003 -3.47999,-0.0229 -3.69476,-0.42421 z m 8.54981,-1.97194 c 1.12632,-0.47185 2.27811,-1.87858 2.68548,-3.27989 0.26018,-0.89499 0.33178,-1.82843 0.2757,-3.5947 -0.065,-2.04951 -0.1527,-2.53533 -0.62177,-3.44684 -0.828,-1.60895 -2.06801,-2.29161 -4.3833,-2.41313 l -1.80342,-0.0947 v 6.63785 6.63785 l 0.48091,0.0709 c 0.73597,0.10844 2.53117,-0.16744 3.3664,-0.51734 z m 8.47831,2.25737 c -0.37814,-0.37813 -0.0894,-1.14108 0.65903,-1.74117 l 0.80152,-0.64269 0.0672,-5.52304 c 0.0369,-3.03767 0.009,-5.83295 -0.062,-6.21173 -0.0962,-0.51276 -0.3161,-0.77738 -0.86085,-1.03589 -0.81565,-0.38704 -1.12962,-1.02095 -0.73888,-1.49177 0.20791,-0.2505 1.00759,-0.31034 4.14678,-0.31034 4.5957,0 5.75792,0.24463 6.98321,1.46995 1.37052,1.37051 1.69,3.99212 0.72298,5.93266 -1.04623,2.09953 -2.4054,2.89337 -5.18213,3.02668 l -1.97709,0.0949 v 2.20876 2.20877 l 0.96183,0.42546 c 0.98549,0.43592 1.23109,0.9497 0.70534,1.47544 -0.27568,0.27568 -5.96116,0.37977 -6.22693,0.114 z m 7.49434,-8.54547 c 1.16582,-0.87041 1.44708,-1.48419 1.44708,-3.15787 0,-2.49492 -0.69465,-3.26843 -3.13386,-3.48961 l -1.24779,-0.11314 v 3.68972 3.68971 l 1.18444,-0.0982 c 0.71743,-0.0594 1.40747,-0.26475 1.75013,-0.52059 z M 146.33938,94.725509 c -4.83303,-0.68761 -7.90518,-3.1828 -9.11147,-7.40031 -0.31649,-1.10655 -0.37358,-2.831476 -0.45218,-13.663297 l -0.09,-12.396866 -1.03127,-0.961826 c -1.06402,-0.99236 -1.26979,-1.469706 -0.99047,-2.297695 l 0.16223,-0.480913 h 5.50007 c 3.99284,0 5.57035,0.07029 5.75656,0.256487 0.50579,0.505796 0.30291,1.666021 -0.40734,2.329498 -0.3651,0.341057 -0.73439,0.620102 -0.82065,0.620102 -0.58206,0 -0.65292,1.423457 -0.65292,13.116215 0,13.201505 0.008,13.297375 1.28229,15.029895 1.85653,2.52448 5.91266,2.46917 7.85164,-0.10706 1.40553,-1.86744 1.42361,-2.05647 1.43548,-15.000969 0.006,-6.406825 -0.0609,-11.903877 -0.14845,-12.215669 -0.0919,-0.327431 -0.60892,-0.890022 -1.22393,-1.331866 -1.13621,-0.816289 -1.47516,-1.521339 -1.08333,-2.253469 0.23586,-0.440727 0.35067,-0.450219 4.76436,-0.393951 l 4.52268,0.05766 0.13473,0.534347 c 0.19649,0.779237 -0.13697,1.512929 -1.03431,2.275748 l -0.79133,0.672706 -0.13227,12.258515 c -0.0795,7.363556 -0.22247,12.643748 -0.35816,13.223288 -1.21396,5.18485 -4.57267,7.85817 -10.3034,8.20084 -0.88167,0.0527 -2.13205,0.0206 -2.7786,-0.0714 z m 85.33804,-0.12019 c -1.99923,-0.43435 -3.70516,-1.44848 -5.35036,-3.18063 -3.22355,-3.3939 -4.74727,-8.236388 -4.75026,-15.096656 -0.002,-5.249128 0.65115,-8.58824 2.37806,-12.15172 2.27653,-4.697688 6.22524,-7.292928 11.09633,-7.292928 6.20294,0 10.92756,4.796216 12.51168,12.701296 0.45516,2.271311 0.62241,7.741494 0.31675,10.359396 -0.4476,3.833506 -1.73108,7.389702 -3.57234,9.897982 -2.88921,3.93591 -7.84142,5.80358 -12.62986,4.76326 z m 5.56521,-4.22471 c 2.29135,-1.74769 3.30259,-7.133468 3.07891,-16.398094 -0.19963,-8.268605 -1.29619,-12.163797 -3.70798,-13.17151 -0.95193,-0.397742 -2.73497,-0.37102 -3.63154,0.05442 -1.66507,0.790139 -2.73947,3.101817 -3.31492,7.132386 -0.44757,3.134916 -0.38802,13.827306 0.0917,16.457922 0.47546,2.607486 1.09484,4.276756 1.93842,5.224206 1.02225,1.14812 1.73231,1.43351 3.36753,1.35342 1.14519,-0.0561 1.55783,-0.17976 2.17793,-0.65275 z m -130.51337,3.61068 c -0.68263,-0.53859 -0.40018,-1.61669 0.60119,-2.29474 0.46937,-0.31783 0.97,-0.8507 1.11249,-1.18418 0.19392,-0.45381 0.2615,-4.17571 0.26872,-14.798717 l 0.01,-14.192413 -1.17556,-1.138599 c -0.98404,-0.953094 -1.17556,-1.260455 -1.17556,-1.886523 0,-1.339629 0.0483,-1.346439 8.33581,-1.17437 7.96255,0.165323 8.64304,0.253915 11.2213,1.460917 2.7739,1.298583 4.3558,3.759419 4.54454,7.069571 0.21701,3.806129 -1.10504,6.169718 -4.41385,7.891153 -0.93068,0.484191 -1.84577,0.880344 -2.03354,0.880344 -0.72815,0 -0.28572,0.366934 0.88759,0.73613 4.53044,1.42555 6.54822,3.677245 6.81785,7.608225 0.37947,5.532412 -2.29433,9.222532 -7.766,10.717852 -1.5277,0.41751 -2.31731,0.46308 -9.25789,0.53435 -6.35624,0.0653 -7.65086,0.0281 -7.97672,-0.229 z m 12.18541,-3.5417 c 2.70205,-0.3107 3.86915,-1.06546 4.81065,-3.11105 0.42578,-0.9251 0.49035,-1.40513 0.48842,-3.630886 -0.002,-2.233566 -0.0675,-2.710026 -0.5072,-3.688566 -0.59036,-1.3137 -1.6075,-2.283752 -2.74285,-2.615861 -0.44405,-0.129891 -1.74513,-0.293396 -2.89131,-0.363347 l -2.08396,-0.127177 -0.0112,5.267685 c -0.006,2.897232 -0.0112,5.940962 -0.0112,6.763862 0,0.82289 0.005,1.54425 0.0112,1.60304 0.0168,0.15941 0.98018,0.12738 2.9375,-0.0977 z m 1.70017,-17.561486 c 2.0943,-1.07777 3.02722,-3.260793 2.80141,-6.555304 -0.25574,-3.731089 -1.69895,-5.145709 -5.45074,-5.342772 l -1.97709,-0.103847 v 6.361231 6.361231 l 1.79635,-0.09428 c 1.36417,-0.07157 2.04504,-0.222268 2.83007,-0.626257 z m 44.69388,21.034996 c -0.65883,-0.73472 -0.47884,-1.48049 0.53434,-2.21396 0.49962,-0.3617 1.00428,-0.86725 1.12147,-1.12348 0.2424,-0.53 0.4337,-26.2656 0.20903,-28.120304 -0.14016,-1.156859 -0.27659,-1.361884 -1.67694,-2.520015 -0.63929,-0.528707 -0.78036,-1.759647 -0.25193,-2.198207 0.23288,-0.193278 2.10736,-0.235543 7.5343,-0.169879 7.91113,0.09572 8.52494,0.176693 11.09357,1.463357 3.48413,1.745258 5.95281,5.400187 7.0606,10.453383 0.3237,1.476532 0.39766,2.717428 0.39489,6.625909 -0.003,4.346364 -0.0515,4.994244 -0.50393,6.732794 -1.55276,5.967652 -4.85456,9.493762 -10.12677,10.814742 -1.52507,0.38211 -2.65621,0.45726 -8.38868,0.55722 -6.3787,0.11125 -6.63987,0.1 -6.99995,-0.30156 z m 12.05783,-3.57825 c 4.39499,-0.93149 5.90167,-3.59329 6.40046,-11.307442 0.37967,-5.871967 -0.22731,-11.936343 -1.42996,-14.286652 -1.20871,-2.362176 -3.1883,-3.566525 -6.16784,-3.752413 l -1.83002,-0.114169 v 14.7425 c 0,8.10839 0.0642,14.806616 0.1425,14.884986 0.22517,0.22518 1.33939,0.16075 2.88486,-0.16681 z m 73.06377,3.51539 c -0.23512,-0.23511 -0.42748,-0.59844 -0.42748,-0.8074 0,-0.54996 0.60202,-1.32567 1.20747,-1.55587 1.11236,-0.42291 1.1287,-0.62677 1.14943,-14.338904 0.0105,-6.977817 0.0135,-13.354462 0.006,-14.170316 l -0.0124,-1.483367 -1.17557,-1.085366 c -0.94019,-0.868045 -1.17556,-1.218438 -1.17556,-1.74998 0,-1.198444 -0.0203,-1.195624 7.84899,-1.090597 5.90977,0.07888 7.45229,0.161784 8.50204,0.456979 5.38296,1.513691 8.00246,4.994508 8.01206,10.646534 0.009,5.049545 -2.02698,8.259525 -6.41386,10.114405 -1.5697,0.6637 -4.48908,1.1671 -6.78137,1.16934 l -1.5496,0.002 v 4.804806 c 0,5.441636 0.16207,6.273026 1.31601,6.750996 0.91049,0.37713 1.24885,0.77875 1.24885,1.48226 0,1.25079 -0.14807,1.28244 -5.99996,1.28244 -5.04323,0 -5.35108,-0.0229 -5.75568,-0.42747 z m 12.8794,-17.573131 c 1.16774,-0.342908 2.37541,-1.478738 2.95178,-2.776214 0.42219,-0.950448 0.51633,-1.575864 0.5884,-3.910032 0.19587,-6.342497 -1.09962,-8.388341 -5.45663,-8.617025 l -1.77218,-0.09302 v 7.792657 c 0,4.285965 0.0721,7.865917 0.16031,7.955449 0.19378,0.196788 2.41401,-0.02464 3.52832,-0.35182 z m -68.61916,17.534311 c -0.3927,-0.39271 -0.31159,-1.41261 0.1433,-1.80173 1.32893,-1.13679 1.48254,-1.35335 1.709,-2.40932 0.31581,-1.47256 0.33167,-26.719921 0.0175,-27.851097 -0.1421,-0.511627 -0.52323,-1.029622 -1.08484,-1.474432 -1.15275,-0.912995 -1.41061,-1.599221 -0.87198,-2.320535 l 0.40776,-0.546053 6.28215,0.06719 c 4.11362,0.04399 6.97249,0.174503 8.28198,0.378071 5.9596,0.926451 9.23274,4.785815 9.21778,10.868732 -0.008,3.283315 -0.92579,5.706361 -2.91452,7.6951 -2.16479,2.164772 -5.13344,3.247132 -9.53206,3.475342 l -2.51144,0.13031 v 4.829936 c 0,5.514876 0.10801,5.973146 1.58392,6.744206 1.08637,0.56754 1.34489,0.99145 1.07423,1.76142 l -0.21058,0.59907 -5.66633,0.0569 c -4.22792,0.0424 -5.73229,-0.009 -5.9262,-0.20305 z m 13.92003,-17.990531 c 1.95356,-1.144869 2.70759,-3.149231 2.70213,-7.182805 -0.006,-4.034334 -0.77396,-6.149967 -2.56606,-7.064232 -0.86139,-0.439449 -4.08107,-0.97097 -4.62269,-0.763135 -0.23528,0.09029 -0.28878,1.562235 -0.28878,7.945141 v 7.83433 l 1.88513,-0.09012 c 1.57334,-0.07521 2.05137,-0.187554 2.89027,-0.679177 z"
       id="path237" /></g></svg>
